<!DOCTYPE svg PUBLIC "-//W3C//DTD SVG 1.1//EN" "http://www.w3.org/Graphics/SVG/1.1/DTD/svg11.dtd">
<!-- Uploaded to: SVG Repo, www.svgrepo.com, Transformed by: SVG Repo Mixer Tools -->
<svg width="800px" height="800px" viewBox="0 0 24 24" fill="none" xmlns="http://www.w3.org/2000/svg">
<g id="SVGRepo_bgCarrier" stroke-width="0"/>
<g id="SVGRepo_tracerCarrier" stroke-linecap="round" stroke-linejoin="round" stroke="#23adcf" stroke-width="2.4"> <path opacity="0.15" d="M12 3C12 7.97056 16.0294 12 21 12C16.0294 12 12 16.0294 12 21C12 16.0294 7.97056 12 3 12C7.97056 12 12 7.97056 12 3Z" fill="#23adcf"/> <path d="M12 3C12 7.97056 16.0294 12 21 12C16.0294 12 12 16.0294 12 21C12 16.0294 7.97056 12 3 12C7.97056 12 12 7.97056 12 3Z" stroke="#23adcf" stroke-width="1.6799999999999997" stroke-linecap="round" stroke-linejoin="round"/> </g>
<g id="SVGRepo_iconCarrier"> <path opacity="0.15" d="M12 3C12 7.97056 16.0294 12 21 12C16.0294 12 12 16.0294 12 21C12 16.0294 7.97056 12 3 12C7.97056 12 12 7.97056 12 3Z" fill="#23adcf"/> <path d="M12 3C12 7.97056 16.0294 12 21 12C16.0294 12 12 16.0294 12 21C12 16.0294 7.97056 12 3 12C7.97056 12 12 7.97056 12 3Z" stroke="#23adcf" stroke-width="1.6799999999999997" stroke-linecap="round" stroke-linejoin="round"/> </g>
</svg>